<svg width="321" height="6" viewBox="0 0 321 6" fill="none" xmlns="http://www.w3.org/2000/svg">
<path d="M9.95215 5.27563L14.9779 0.249907H99.9993L98.8098 1.44235H52.6621L50.4808 3.62366H37.0585L35.4385 5.24364L9.95215 5.27563Z" fill="#7AE7FF"/>
<path d="M10.2265 5.16221L35.393 5.13021L36.981 3.54222L37.0129 3.51023H37.0595H50.4352L52.5846 1.36092L52.6166 1.32893H52.6631H98.7643L99.7298 0.363335H15.0254L10.2265 5.16221ZM9.95312 5.27563L14.9789 0.249907H100L98.8108 1.43945H52.6631L50.4818 3.62075H37.0595L35.4395 5.24073L9.95312 5.27563Z" fill="#7AE7FF"/>
<path d="M8.44886 5.27563L13.5589 0.052134H10.1881L5.06348 5.17675L8.44886 5.27563Z" fill="#7AE7FF"/>
<path d="M8.40233 5.16221L13.2914 0.165562H10.2346L5.32814 5.07205L8.40233 5.16221ZM8.44886 5.27563L5.06348 5.17675L10.1881 0.052134H13.5589L8.44886 5.27563Z" fill="#7AE7FF"/>
<path d="M3.38539 5.27563L8.49546 0.052134H5.12462L0 5.17675L3.38539 5.27563Z" fill="#7AE7FF"/>
<path d="M3.33885 5.16221L8.22789 0.165562H5.17115L0.264665 5.07205L3.33885 5.16221ZM3.38539 5.27563L0 5.17675L5.12462 0.052134H8.49546L3.38539 5.27563Z" fill="#7AE7FF"/>
<path d="M310.948 5.27563L305.872 0.199657H220.001L221.202 1.40403H267.811L270.014 3.60714H283.571L285.207 5.24332L310.948 5.27563Z" fill="#7AE7FF"/>
<path d="M310.671 5.16107L285.253 5.12876L283.649 3.52489L283.617 3.49258H283.57H270.06L267.89 1.32178L267.857 1.28946H267.81H221.248L220.273 0.314219H305.824L310.671 5.16107ZM310.947 5.27563L305.871 0.199657H220L221.201 1.40109H267.81L270.013 3.6042H283.57L285.206 5.24038L310.947 5.27563Z" fill="#7AE7FF"/>
<path d="M312.467 5.27563L307.306 -9.29832e-05H310.71L315.886 5.17576L312.467 5.27563Z" fill="#7AE7FF"/>
<path d="M312.514 5.16107L307.576 0.114469H310.663L315.619 5.07001L312.514 5.16107ZM312.467 5.27563L315.886 5.17576L310.71 -9.29832e-05H307.306L312.467 5.27563Z" fill="#7AE7FF"/>
<path d="M317.581 5.27563L312.42 -9.29832e-05H315.824L321 5.17576L317.581 5.27563Z" fill="#7AE7FF"/>
<path d="M317.628 5.16107L312.69 0.114469H315.777L320.733 5.07001L317.628 5.16107ZM317.581 5.27563L321 5.17576L315.824 -9.29832e-05H312.42L317.581 5.27563Z" fill="#7AE7FF"/>
<path opacity="0.3" d="M305 1.177H21V0.267002H305V1.177Z" fill="#7AE7FF"/>
</svg>
