<svg width="321" height="6" viewBox="0 0 321 6" fill="none" xmlns="http://www.w3.org/2000/svg">
<path d="M9.95215 0.216797L14.9779 5.24253H99.9993L98.8098 4.05008H52.6621L50.4808 1.86877H37.0585L35.4385 0.248789L9.95215 0.216797Z" fill="#7AE7FF"/>
<path d="M10.2265 0.330225L35.393 0.362217L36.981 1.95021L37.0129 1.9822H37.0595H50.4352L52.5846 4.13151L52.6166 4.16351H52.6631H98.7643L99.7298 5.1291H15.0254L10.2265 0.330225ZM9.95312 0.216797L14.9789 5.24253H100L98.8108 4.05299H52.6631L50.4818 1.87168H37.0595L35.4395 0.251698L9.95312 0.216797Z" fill="#7AE7FF"/>
<path d="M8.44886 0.216797L13.5589 5.4403H10.1881L5.06348 0.315683L8.44886 0.216797Z" fill="#7AE7FF"/>
<path d="M8.40233 0.330225L13.2914 5.32687H10.2346L5.32814 0.420385L8.40233 0.330225ZM8.44886 0.216797L5.06348 0.315683L10.1881 5.4403H13.5589L8.44886 0.216797Z" fill="#7AE7FF"/>
<path d="M3.38539 0.216797L8.49546 5.4403H5.12462L0 0.315683L3.38539 0.216797Z" fill="#7AE7FF"/>
<path d="M3.33885 0.330225L8.22789 5.32687H5.17115L0.264665 0.420385L3.33885 0.330225ZM3.38539 0.216797L0 0.315683L5.12462 5.4403H8.49546L3.38539 0.216797Z" fill="#7AE7FF"/>
<path d="M310.948 0.216797L305.872 5.29277H220.001L221.202 4.0884H267.811L270.014 1.88529H283.571L285.207 0.249109L310.948 0.216797Z" fill="#7AE7FF"/>
<path d="M310.671 0.331359L285.253 0.363671L283.649 1.96754L283.617 1.99985H283.57H270.06L267.89 4.17065L267.857 4.20297H267.81H221.248L220.273 5.17821H305.824L310.671 0.331359ZM310.947 0.216797L305.871 5.29277H220L221.201 4.09134H267.81L270.013 1.88823H283.57L285.206 0.252047L310.947 0.216797Z" fill="#7AE7FF"/>
<path d="M312.467 0.216797L307.306 5.49252H310.71L315.886 0.316671L312.467 0.216797Z" fill="#7AE7FF"/>
<path d="M312.514 0.331359L307.576 5.37796H310.663L315.619 0.422421L312.514 0.331359ZM312.467 0.216797L315.886 0.316671L310.71 5.49252H307.306L312.467 0.216797Z" fill="#7AE7FF"/>
<path d="M317.581 0.216797L312.42 5.49252H315.824L321 0.316671L317.581 0.216797Z" fill="#7AE7FF"/>
<path d="M317.628 0.331359L312.69 5.37796H315.777L320.733 0.422421L317.628 0.331359ZM317.581 0.216797L321 0.316671L315.824 5.49252H312.42L317.581 0.216797Z" fill="#7AE7FF"/>
<path opacity="0.3" d="M305 4.31543H21V5.22543H305V4.31543Z" fill="#7AE7FF"/>
</svg>
