<svg width="329" height="177" viewBox="23 100 329 177" fill="none" xmlns="http://www.w3.org/2000/svg">
<g filter="url(#filter0_d_71_365)">
<path d="M32 273.796L34.41 276.216H42.92L40.45 273.746L32 273.796Z" fill="#7AE7FF"/>
<path d="M43.9297 273.796L46.3497 276.216H54.8497L52.3897 273.746L43.9297 273.796Z" fill="#7AE7FF"/>
<path d="M55.8701 273.796L58.2801 276.216H66.7901L64.3201 273.746L55.8701 273.796Z" fill="#7AE7FF"/>
<path d="M67.7998 273.796L70.2198 276.216H78.7198L76.2598 273.746L67.7998 273.796Z" fill="#7AE7FF"/>
<path d="M295.74 105.566L298.15 103.146H306.66L304.2 105.606L295.74 105.566Z" fill="#7AE7FF"/>
<path d="M307.67 105.566L310.09 103.146H318.6L316.13 105.606L307.67 105.566Z" fill="#7AE7FF"/>
<path d="M319.61 105.566L322.03 103.146H330.53L328.07 105.606L319.61 105.566Z" fill="#7AE7FF"/>
<path d="M331.55 105.566L333.96 103.146H342.47L340 105.606L331.55 105.566Z" fill="#7AE7FF"/>
<path d="M278.65 272.656L281.06 270.236H289.57L287.1 272.696L278.65 272.656Z" fill="#7AE7FF"/>
<path d="M290.58 272.656L293 270.236H301.5L299.04 272.696L290.58 272.656Z" fill="#7AE7FF"/>
<path d="M24 110.766V261.786L32.87 270.646H77.4L82.43 275.676H300.56L303.85 272.386H340.58L350.31 262.656V107.636L343.91 101.236H186.51L184.41 103.336H105.98L104.32 101.676H33.23L24 110.766Z" stroke="#7AE7FF" stroke-width="2.3247" stroke-miterlimit="10"/>
</g>
<defs>
<filter id="filter0_d_71_365" x="-37.1621" y="44.0735" width="448.634" height="296.765" filterUnits="userSpaceOnUse" color-interpolation-filters="sRGB">
<feFlood flood-opacity="0" result="BackgroundImageFix"/>
<feColorMatrix in="SourceAlpha" type="matrix" values="0 0 0 0 0 0 0 0 0 0 0 0 0 0 0 0 0 0 127 0" result="hardAlpha"/>
<feOffset dy="4"/>
<feGaussianBlur stdDeviation="30"/>
<feComposite in2="hardAlpha" operator="out"/>
<feColorMatrix type="matrix" values="0 0 0 0 0.479167 0 0 0 0 0.90625 0 0 0 0 1 0 0 0 0.5 0"/>
<feBlend mode="normal" in2="BackgroundImageFix" result="effect1_dropShadow_71_365"/>
<feBlend mode="normal" in="SourceGraphic" in2="effect1_dropShadow_71_365" result="shape"/>
</filter>
</defs>
</svg>
