<svg width="328" height="283" fill="none" xmlns="http://www.w3.org/2000/svg"><path fill="#000" stroke="#7AE7FF" stroke-width="2" d="M1 56.357h326v210H1z"/><mask id="Group 2846__a" style="mask-type:alpha" maskUnits="userSpaceOnUse" x="0" y="0" width="328" height="58"><path fill="#C4C4C4" d="M0 .357h328v57H0z"/></mask><g mask="url(#Group 2846__a)"><path d="M1 9.887v122.1l8.87 8.86H54.4l5.03 5.03h217.13l3.29-3.29h36.73l9.73-9.73V6.757l-6.4-6.4h-156.4l-2.1 2.1H82.98L81.32.797H10.23L1 9.887Z" fill="#000"/><path d="m272.74 4.688 2.41-2.42h8.51l-2.46 2.46-8.46-.04Zm11.93 0 2.42-2.42h8.51l-2.47 2.46-8.46-.04Zm11.94 0 2.42-2.42h8.5l-2.46 2.46-8.46-.04Zm11.94 0 2.41-2.42h8.51L317 4.728l-8.45-.04Z" fill="#7AE7FF"/><path d="M1 9.887v121.02l8.87 8.86H54.4l5.03 5.03h218.13l3.29-3.29h36.73l9.73-9.73V6.757l-6.4-6.4h-157.4l-2.1 2.1H82.98L81.32.797H10.23L1 9.887Z" stroke="#7AE7FF" stroke-width="2.325" stroke-miterlimit="10"/></g><mask id="Group 2846__b" style="mask-type:alpha" maskUnits="userSpaceOnUse" x="0" y="225" width="328" height="58"><path fill="#C4C4C4" d="M0 225.357h328v57H0z"/></mask><g mask="url(#Group 2846__b)"><path d="m9 278.917 2.41 2.42h8.51l-2.47-2.47-8.45.05Zm11.93 0 2.42 2.42h8.5l-2.46-2.47-8.46.05Zm11.94 0 2.41 2.42h8.51l-2.47-2.47-8.45.05Zm11.93 0 2.42 2.42h8.5l-2.46-2.47-8.46.05Z" fill="#7AE7FF"/><path d="M1 145.887v122.1l8.87 8.86H54.4l5.03 5.03h217.13l3.29-3.29h36.73l9.73-9.73v-126.1l-6.4-6.4h-156.4l-2.1 2.1H82.98l-1.66-1.66H10.23L1 145.887Z" fill="#000"/><path d="m255.65 277.777 2.41-2.42h8.51l-2.47 2.46-8.45-.04Zm11.931 0 2.42-2.42h8.5l-2.46 2.46-8.46-.04Z" fill="#7AE7FF"/><path d="M1 145.887v121.02l8.87 8.86H54.4l5.03 5.03h218.13l3.29-3.29h36.73l9.73-9.73v-125.02l-6.4-6.4h-157.4l-2.1 2.1H82.98l-1.66-1.66H10.23L1 145.887Z" stroke="#7AE7FF" stroke-width="2.325" stroke-miterlimit="10"/></g></svg>