<svg width="273" height="300" viewBox="0 0 273 300" fill="none" xmlns="http://www.w3.org/2000/svg">
<path d="M10 296.56L12.41 298.98H20.92L18.45 296.51L10 296.56Z" fill="#7AE7FF"/>
<path d="M21.9299 296.56L24.3499 298.98H32.8499L30.3899 296.51L21.9299 296.56Z" fill="#7AE7FF"/>
<path d="M33.8701 296.56L36.2801 298.98H44.7901L42.3201 296.51L33.8701 296.56Z" fill="#7AE7FF"/>
<path d="M45.8 296.56L48.2201 298.98H56.7201L54.26 296.51L45.8 296.56Z" fill="#7AE7FF"/>
<path d="M2 11.53V283.4L10.87 292.26H55.4L60.43 297.29H231.56L234.85 294H262.58L272.31 284.27V8.4L265.91 2H164.51L162.41 4.1H83.98L82.32 2.44H11.23L2 11.53Z" fill="black"/>
<path d="M163.74 6.33003L166.15 3.91003H174.66L172.2 6.37003L163.74 6.33003Z" fill="#7AE7FF"/>
<path d="M175.67 6.33003L178.09 3.91003H186.6L184.13 6.37003L175.67 6.33003Z" fill="#7AE7FF"/>
<path d="M187.61 6.33003L190.03 3.91003H198.53L196.07 6.37003L187.61 6.33003Z" fill="#7AE7FF"/>
<path d="M199.55 6.33003L201.96 3.91003H210.47L208 6.37003L199.55 6.33003Z" fill="#7AE7FF"/>
<path d="M230.65 292.42L233.06 290H241.57L239.1 292.46L230.65 292.42Z" fill="#7AE7FF"/>
<path d="M242.58 292.42L245 290H253.5L251.04 292.46L242.58 292.42Z" fill="#7AE7FF"/>
<path d="M2 11.53V284.55L10.87 293.41H55.4L60.43 298.44H221.56L224.85 295.15H261.58L271.31 285.42V8.4L264.91 2H164.51L162.41 4.1H83.98L82.32 2.44H11.23L2 11.53Z" stroke="#7AE7FF" stroke-width="2.3247" stroke-miterlimit="10"/>
</svg>
