<svg width="582" height="403" viewBox="0 0 582 403" fill="none" xmlns="http://www.w3.org/2000/svg">
<path d="M5.21714 19.4505L1.30633 24.5232L1.29177 42.4606L5.28339 37.2616L5.21714 19.4505Z" fill="#7AE7FF"/>
<path d="M5.19663 44.6012L1.2858 49.6949L1.27126 67.6108L5.26287 62.4329L5.19663 44.6012Z" fill="#7AE7FF"/>
<path d="M5.17734 69.7723L1.26647 74.845L1.25191 92.7824L5.2436 87.5834L5.17734 69.7723Z" fill="#7AE7FF"/>
<path d="M5.15732 94.9227L1.24649 100.017L1.23195 117.933L5.22356 112.755L5.15732 94.9227Z" fill="#7AE7FF"/>
<path d="M560.668 3.0197L26.4895 2.05064L12.1701 20.6921L12.0937 114.408L3.96434 124.979L3.80983 314.663L9.11576 321.597L9.06823 379.957L24.7603 400.462L565.397 401.443L575.74 387.993L575.775 345.06L572.388 340.634L572.523 175.573L575.206 172.085L575.328 22.4714L560.668 3.0197Z" fill="black"/>
<path d="M576.946 244.259L580.849 249.346L580.835 267.283L576.867 262.091L576.946 244.259Z" fill="#7AE7FF"/>
<path d="M576.926 269.409L580.829 274.517L580.815 292.454L576.847 287.241L576.926 269.409Z" fill="#7AE7FF"/>
<path d="M576.906 294.581L580.809 299.689L580.794 317.605L576.827 312.413L576.906 294.581Z" fill="#7AE7FF"/>
<path d="M576.887 319.751L580.79 324.838L580.775 342.775L576.808 337.562L576.887 319.751Z" fill="#7AE7FF"/>
<path d="M11.6497 336.473L15.5523 341.56L15.5377 359.497L11.5707 354.284L11.6497 336.473Z" fill="#7AE7FF"/>
<path d="M11.6295 361.623L15.532 366.731L15.5174 384.648L11.5504 379.455L11.6295 361.623Z" fill="#7AE7FF"/>
<path d="M560.666 2.61516L24.6052 2.0341L10.2863 20.7055L10.2164 114.519L2.08736 125.108L1.95998 296.029L7.26668 302.966L7.20901 380.347L22.9033 400.863L565.423 401.451L575.766 387.979L575.798 345.001L572.411 340.573L572.534 175.34L575.216 171.846L575.328 22.0764L560.666 2.61516Z" stroke="#7AE7FF" stroke-width="2.3247" stroke-miterlimit="10"/>
</svg>
