<svg width="402" height="477" fill="none" xmlns="http://www.w3.org/2000/svg"><path d="m14.238 453.427 3.566 2.917h12.593l-3.655-2.977-12.504.06Zm17.654 0 3.58 2.917h12.579l-3.64-2.977-12.52.06Zm17.668 0 3.567 2.917h12.592l-3.654-2.977-12.505.06Zm17.654 0 3.581 2.917h12.578l-3.64-2.977-12.519.06Z" fill="#7AE7FF"/><path d="M2 13.486v444.569l13.126 10.678H81.02l7.444 6.062h253.235l4.868-3.965h41.035L402 459.103V9.713L392.529 2h-150.05l-3.107 2.531H123.313l-2.457-2H15.658L2 13.485Z" fill="#000"/><path d="m10.879 474.952 3.566-2.917h12.593L23.398 475l-12.52-.048Zm17.654 0 3.58-2.917h12.594L41.052 475l-12.52-.048Zm17.668 0 3.581-2.917H62.36L58.72 475l-12.519-.048Zm17.669 0 3.566-2.917H80.03L76.374 475l-12.504-.048Zm276.482-7.231 3.566-2.917h12.593l-3.655 2.965-12.504-.048Zm17.654 0 3.581-2.917h12.578l-3.64 2.965-12.519-.048Z" fill="#7AE7FF"/><path d="M2 13.486v444.75l13.126 10.678H81.02l7.444 6.062H326.9l4.869-3.965h54.352l14.398-11.727V9.714L391.05 2H242.479l-3.107 2.531H123.313l-2.457-2H15.658L2 13.485Z" stroke="#7AE7FF" stroke-width="2.325" stroke-miterlimit="10"/></svg>