<svg width="330" height="284" viewBox="0 0 330 284" fill="none" xmlns="http://www.w3.org/2000/svg">
<path d="M11 279.642L13.41 282H21.92L19.45 279.594L11 279.642Z" fill="#7AE7FF"/>
<path d="M22.9297 279.642L25.3497 282H33.8497L31.3897 279.594L22.9297 279.642Z" fill="#7AE7FF"/>
<path d="M34.8701 279.642L37.2801 282H45.7901L43.3201 279.594L34.8701 279.642Z" fill="#7AE7FF"/>
<path d="M46.7998 279.642L49.2198 282H57.7198L55.2598 279.594L46.7998 279.642Z" fill="#7AE7FF"/>
<path d="M272.74 7.23122L275.15 4.87378H283.66L281.2 7.27019L272.74 7.23122Z" fill="#7AE7FF"/>
<path d="M284.67 7.23122L287.09 4.87378H295.6L293.13 7.27019L284.67 7.23122Z" fill="#7AE7FF"/>
<path d="M296.61 7.23122L299.03 4.87378H307.53L305.07 7.27019L296.61 7.23122Z" fill="#7AE7FF"/>
<path d="M308.55 7.23122L310.96 4.87378H319.47L317 7.27019L308.55 7.23122Z" fill="#7AE7FF"/>
<path d="M256 278.912L258.41 276.554H266.92L264.45 278.951L256 278.912Z" fill="#7AE7FF"/>
<path d="M267.93 278.912L270.35 276.554H278.85L276.39 278.951L267.93 278.912Z" fill="#7AE7FF"/>
<path d="M2 11.2837V268.45L10.87 277.081H55.4L60.43 281.981H278.56L281.85 278.776H318.58L328.31 269.297V8.23456L321.91 2H164.51L162.41 4.04572H83.98L82.32 2.42863H11.23L2 11.2837Z" stroke="#7AE7FF" stroke-width="2.3247" stroke-miterlimit="10"/>
</svg>
