<svg width="375" height="350" viewBox="0 0 375 350" fill="none" xmlns="http://www.w3.org/2000/svg">
<g filter="url(#filter0_d_71_298)">
<path d="M32 282.796L34.41 285.216H42.92L40.45 282.746L32 282.796Z" fill="#7AE7FF"/>
<path d="M43.9297 282.796L46.3497 285.216H54.8497L52.3897 282.746L43.9297 282.796Z" fill="#7AE7FF"/>
<path d="M55.8701 282.796L58.2801 285.216H66.7901L64.3201 282.746L55.8701 282.796Z" fill="#7AE7FF"/>
<path d="M67.7998 282.796L70.2198 285.216H78.7198L76.2598 282.746L67.7998 282.796Z" fill="#7AE7FF"/>
<path d="M295.74 95.5659L298.15 93.1459H306.66L304.2 95.6059L295.74 95.5659Z" fill="#7AE7FF"/>
<path d="M307.67 95.5659L310.09 93.1459H318.6L316.13 95.6059L307.67 95.5659Z" fill="#7AE7FF"/>
<path d="M319.61 95.5659L322.03 93.1459H330.53L328.07 95.6059L319.61 95.5659Z" fill="#7AE7FF"/>
<path d="M331.55 95.5659L333.96 93.1459H342.47L340 95.6059L331.55 95.5659Z" fill="#7AE7FF"/>
<path d="M278.65 281.656L281.06 279.236H289.57L287.1 281.696L278.65 281.656Z" fill="#7AE7FF"/>
<path d="M290.58 281.656L293 279.236H301.5L299.04 281.696L290.58 281.656Z" fill="#7AE7FF"/>
<path d="M24 100.766V270.786L32.87 279.646H77.4L82.43 284.676H300.56L303.85 281.386H340.58L350.31 271.656V97.6358L343.91 91.2358H186.51L184.41 93.3358H105.98L104.32 91.6758H33.23L24 100.766Z" stroke="#7AE7FF" stroke-width="2.3247" stroke-miterlimit="10"/>
</g>
<defs>
<filter id="filter0_d_71_298" x="-37.1621" y="34.0735" width="448.634" height="315.765" filterUnits="userSpaceOnUse" color-interpolation-filters="sRGB">
<feFlood flood-opacity="0" result="BackgroundImageFix"/>
<feColorMatrix in="SourceAlpha" type="matrix" values="0 0 0 0 0 0 0 0 0 0 0 0 0 0 0 0 0 0 127 0" result="hardAlpha"/>
<feOffset dy="4"/>
<feGaussianBlur stdDeviation="30"/>
<feComposite in2="hardAlpha" operator="out"/>
<feColorMatrix type="matrix" values="0 0 0 0 0.479167 0 0 0 0 0.90625 0 0 0 0 1 0 0 0 0.5 0"/>
<feBlend mode="normal" in2="BackgroundImageFix" result="effect1_dropShadow_71_298"/>
<feBlend mode="normal" in="SourceGraphic" in2="effect1_dropShadow_71_298" result="shape"/>
</filter>
</defs>
</svg>
