<svg width="25" height="19" viewBox="0 0 25 19" fill="none" xmlns="http://www.w3.org/2000/svg">
<path d="M20.2188 2.23438C20.2188 2.23438 20.2188 2.23438 20.1797 2.23438C18.7344 1.57031 17.1328 1.0625 15.5312 0.789062C15.4922 0.789062 15.4922 0.75 15.4922 0.75L15.4531 0.789062C15.2188 1.17969 15.0234 1.60938 14.8672 2C14.0078 1.88281 13.1094 1.80469 12.2109 1.80469C11.3125 1.80469 10.4531 1.88281 9.59375 2C9.4375 1.60938 9.24219 1.17969 9.00781 0.789062H8.96875C8.92969 0.789062 8.92969 0.789062 8.92969 0.789062C7.32812 1.0625 5.72656 1.57031 4.28125 2.23438C4.24219 2.23438 4.24219 2.23438 4.24219 2.23438C1.27344 6.6875 0.453125 11.0234 0.84375 15.3203C0.84375 15.3203 0.84375 15.3594 0.882812 15.3594C2.5625 16.6484 4.51562 17.625 6.625 18.25C6.66406 18.25 6.66406 18.25 6.70312 18.25C7.13281 17.625 7.52344 17 7.875 16.3359V16.2969C7.875 16.2578 7.83594 16.2578 7.83594 16.2188C7.21094 15.9844 6.58594 15.7109 6.03906 15.3594C6 15.3594 6 15.3594 6 15.3203C6 15.2812 6 15.2812 6.03906 15.2422C6.15625 15.1641 6.27344 15.0859 6.39062 14.9688C6.39062 14.9688 6.39062 14.9688 6.42969 14.9688C6.42969 14.9688 6.42969 14.9688 6.46875 14.9688C10.2188 16.6875 14.2812 16.6875 17.9922 14.9688H18.0312H18.0703C18.1875 15.0859 18.3047 15.1641 18.4219 15.2422C18.4609 15.2812 18.4609 15.2812 18.4609 15.3203C18.4609 15.3594 18.4609 15.3594 18.4219 15.3594C17.8359 15.7109 17.25 15.9844 16.625 16.2188C16.5859 16.2578 16.5859 16.2578 16.5859 16.2969V16.3359C16.9375 17 17.3281 17.625 17.7578 18.25C17.7578 18.25 17.7969 18.25 17.8359 18.25C19.9062 17.625 21.8594 16.6484 23.5781 15.3594C23.6172 15.3594 23.6172 15.3203 23.6172 15.3203C24.0859 10.3594 22.7969 6.0625 20.2188 2.23438ZM8.42188 12.7031C7.28906 12.7031 6.35156 11.6484 6.35156 10.3984C6.35156 9.10938 7.28906 8.09375 8.42188 8.09375C9.59375 8.09375 10.4922 9.10938 10.4922 10.3984C10.4922 11.6484 9.55469 12.7031 8.42188 12.7031ZM16.0391 12.7031C14.9062 12.7031 14.0078 11.6484 14.0078 10.3984C14.0078 9.10938 14.9062 8.09375 16.0391 8.09375C17.2109 8.09375 18.1484 9.10938 18.1094 10.3984C18.1094 11.6484 17.2109 12.7031 16.0391 12.7031Z" fill="white"/>
</svg>
