<svg width="1292" height="739" viewBox="0 0 1292 739" fill="none" xmlns="http://www.w3.org/2000/svg">
<line opacity="0.3" x1="1290.19" y1="3.05908" x2="1290.19" y2="738.059" stroke="#7AE7FF" stroke-dasharray="3 3"/>
<line opacity="0.3" x1="1105.77" y1="3.05908" x2="1105.77" y2="738.059" stroke="#7AE7FF" stroke-dasharray="3 3"/>
<line opacity="0.3" x1="922.464" y1="3.05908" x2="922.464" y2="738.059" stroke="#7AE7FF" stroke-dasharray="3 3"/>
<line opacity="0.3" x1="738.051" y1="3.05908" x2="738.051" y2="738.059" stroke="#7AE7FF" stroke-dasharray="3 3"/>
<line opacity="0.3" x1="553.637" y1="3.05908" x2="553.637" y2="738.059" stroke="#7AE7FF" stroke-dasharray="3 3"/>
<line opacity="0.3" x1="369.223" y1="3.05908" x2="369.223" y2="738.059" stroke="#7AE7FF" stroke-dasharray="3 3"/>
<line opacity="0.3" x1="185.914" y1="3.05908" x2="185.914" y2="738.059" stroke="#7AE7FF" stroke-dasharray="3 3"/>
<line opacity="0.3" x1="1.5" y1="3.05908" x2="1.49997" y2="738.059" stroke="#7AE7FF" stroke-dasharray="3 3"/>
<line x1="1290.19" y1="1.55908" x2="1290.19" y2="22.5591" stroke="#7AE7FF" stroke-width="3" stroke-linecap="square"/>
<line x1="1105.5" y1="1.55908" x2="1105.5" y2="10.5591" stroke="#7AE7FF" stroke-width="3" stroke-linecap="square"/>
<line x1="922.5" y1="1.55908" x2="922.5" y2="10.5591" stroke="#7AE7FF" stroke-width="3" stroke-linecap="square"/>
<line x1="737.5" y1="1.55908" x2="737.5" y2="10.5591" stroke="#7AE7FF" stroke-width="3" stroke-linecap="square"/>
<line x1="553.5" y1="1.55908" x2="553.5" y2="10.5591" stroke="#7AE7FF" stroke-width="3" stroke-linecap="square"/>
<line x1="369.5" y1="1.55908" x2="369.5" y2="10.5591" stroke="#7AE7FF" stroke-width="3" stroke-linecap="square"/>
<line x1="185.5" y1="1.55908" x2="185.5" y2="10.5591" stroke="#7AE7FF" stroke-width="3" stroke-linecap="square"/>
<line x1="1.5" y1="1.55908" x2="1.5" y2="22.5591" stroke="#7AE7FF" stroke-width="3" stroke-linecap="square"/>
<line x1="2.5" y1="1.55908" x2="1289.5" y2="1.55908" stroke="#7AE7FF" stroke-width="3" stroke-linecap="square"/>
<line x1="1.5" y1="-1.5" x2="22.5" y2="-1.5" transform="matrix(0 -1 -1 0 1288.69 738.059)" stroke="#7AE7FF" stroke-width="3" stroke-linecap="square"/>
<line x1="1.5" y1="-1.5" x2="10.5" y2="-1.5" transform="matrix(0 -1 -1 0 1104 738.059)" stroke="#7AE7FF" stroke-width="3" stroke-linecap="square"/>
<line x1="1.5" y1="-1.5" x2="10.5" y2="-1.5" transform="matrix(0 -1 -1 0 921 738.059)" stroke="#7AE7FF" stroke-width="3" stroke-linecap="square"/>
<line x1="1.5" y1="-1.5" x2="10.5" y2="-1.5" transform="matrix(0 -1 -1 0 736 738.059)" stroke="#7AE7FF" stroke-width="3" stroke-linecap="square"/>
<line x1="1.5" y1="-1.5" x2="10.5" y2="-1.5" transform="matrix(0 -1 -1 0 552 738.059)" stroke="#7AE7FF" stroke-width="3" stroke-linecap="square"/>
<line x1="1.5" y1="-1.5" x2="10.5" y2="-1.5" transform="matrix(0 -1 -1 0 368 738.059)" stroke="#7AE7FF" stroke-width="3" stroke-linecap="square"/>
<line x1="1.5" y1="-1.5" x2="10.5" y2="-1.5" transform="matrix(0 -1 -1 0 184 738.059)" stroke="#7AE7FF" stroke-width="3" stroke-linecap="square"/>
<line x1="1.5" y1="-1.5" x2="22.5" y2="-1.5" transform="matrix(0 -1 -1 0 0 738.059)" stroke="#7AE7FF" stroke-width="3" stroke-linecap="square"/>
<line x1="2.5" y1="736.559" x2="1289.5" y2="736.559" stroke="#7AE7FF" stroke-width="3" stroke-linecap="square"/>
</svg>
