<svg width="330" height="308" fill="none" xmlns="http://www.w3.org/2000/svg"><path d="m10 301.76 2.41 5.102h8.51l-2.47-5.207-8.45.105Zm11.93 0 2.42 5.102h8.5l-2.46-5.207-8.46.105Zm11.94 0 2.41 5.102h8.51l-2.47-5.207-8.45.105Zm11.93 0 2.42 5.102h8.5l-2.46-5.207-8.46.105Z" fill="#7AE7FF"/><path d="M2 21.307v257.41l8.87 18.679H55.4L60.43 308h217.13l3.29-6.936h36.73l9.73-20.513V14.708l-6.4-13.492h-156.4l-2.1 4.427H83.98l-1.66-3.5H11.23L2 21.307Z" fill="#000"/><path d="m273.74 10.345 2.41-5.102h8.51l-2.46 5.186-8.46-.084Zm11.93 0 2.42-5.102h8.51l-2.47 5.186-8.46-.084Zm11.94 0 2.42-5.102h8.5l-2.46 5.186-8.46-.084Zm11.94 0 2.41-5.102h8.51L318 10.429l-8.45-.084Zm-52.9 289.011 2.41-5.101h8.51l-2.47 5.186-8.45-.085Zm11.93 0 2.42-5.101h8.5l-2.46 5.186-8.46-.085Z" fill="#7AE7FF"/><path d="M2 21.307V276.44l8.87 18.679H55.4l5.03 10.604h218.13l3.29-6.936h36.73l9.73-20.513V14.708l-6.4-13.492h-157.4l-2.1 4.427H83.98l-1.66-3.5H11.23L2 21.307Z" stroke="#7AE7FF" stroke-width="2.325" stroke-miterlimit="10"/></svg>