<svg xmlns="http://www.w3.org/2000/svg" width="329" height="235" fill="none" viewBox="0 0 329 235">
  <path fill="#7AE7FF" d="m9.968 230.523 2.4 3.261h8.476l-2.46-3.329-8.416.068Zm11.882 0 2.41 3.261h8.466l-2.45-3.329-8.426.068Zm11.892 0 2.4 3.261h8.476l-2.46-3.329-8.416.068Zm11.882 0 2.41 3.261H56.5l-2.45-3.329-8.426.068Z"/>
  <path fill="#000" d="M2 14.844v199.6l8.834 11.941h44.352l5.01 6.779h216.258l3.277-4.434h36.582l9.691-13.113V10.625L319.63 2H163.858l-2.092 2.83H83.651l-1.653-2.237H11.193L2 14.844Z"/>
  <path fill="#7AE7FF" d="m272.649 7.836 2.401-3.262h8.476l-2.451 3.316-8.426-.054Zm11.883 0 2.41-3.262h8.476l-2.46 3.316-8.426-.054Zm11.892 0 2.41-3.262h8.466l-2.45 3.316-8.426-.054Zm11.891 0 2.401-3.262h8.476l-2.46 3.316-8.417-.054Zm-52.688 221.15 2.401-3.261h8.476l-2.46 3.315-8.417-.054Zm11.883 0 2.41-3.261h8.466l-2.45 3.315-8.426-.054Z"/>
  <path stroke="#7AE7FF" stroke-miterlimit="10" stroke-width="2.325" d="M2 14.844v199.492l8.834 11.941h44.352l5.01 6.779H277.45l3.277-4.434h36.582L327 215.509V10.626L320.626 2H163.858l-2.092 2.83H83.651l-1.653-2.237H11.193L2 14.844Z"/>
</svg>
