<svg width="351" height="346" fill="none" xmlns="http://www.w3.org/2000/svg"><path d="M3.359 16.94 1 21.294v15.374l2.408-4.462-.049-15.266Zm0 21.552L1 42.864V58.22l2.408-4.444-.049-15.284Zm0 21.571L1 64.417V79.79l2.408-4.463-.049-15.265Zm0 21.552L1 85.987v15.356l2.408-4.444-.049-15.284Z" fill="#7AE7FF"/><path d="M338.699 2H16.186L7.55 18.024V98.47l-4.903 9.087v162.826l3.207 5.943v50.096L15.338 344H341.75l6.239-11.562v-36.854l-2.047-3.794V150.102l1.618-2.999V18.675L338.699 2Z" fill="#000"/><path d="m348.641 209.285 2.359 4.353v15.374l-2.398-4.444.039-15.283Zm0 21.552 2.359 4.372v15.374l-2.398-4.463.039-15.283Zm0 21.57 2.359 4.372v15.356l-2.398-4.444.039-15.284Zm0 21.571 2.359 4.354v15.373l-2.398-4.462.039-15.265ZM7.394 288.611l2.359 4.353v15.374l-2.398-4.462.04-15.265Zm0 21.552 2.359 4.372v15.355l-2.398-4.444.04-15.283Z" fill="#7AE7FF"/><path d="M338.699 2H15.065L6.43 18.024V98.47l-4.903 9.087v146.567l3.207 5.943v66.355L14.217 344H341.75l6.239-11.562v-36.854l-2.047-3.794V150.102l1.618-2.999V18.675L338.699 2Z" stroke="#7AE7FF" stroke-width="2.325" stroke-miterlimit="10"/></svg>