<svg width="330" height="339" fill="none" xmlns="http://www.w3.org/2000/svg"><path d="m10 332.129 2.41 5.618h8.51l-2.47-5.734-8.45.116Zm11.93 0 2.42 5.618h8.5l-2.46-5.734-8.46.116Zm11.94 0 2.41 5.618h8.51l-2.47-5.734-8.45.116Zm11.93 0 2.42 5.618h8.5l-2.46-5.734-8.46.116Z" fill="#7AE7FF"/><path d="M2 23.337v283.421l8.87 20.566H55.4L60.43 339h217.13l3.29-7.637h36.73l9.73-22.585V16.072l-6.4-14.856h-156.4l-2.1 4.874H83.98l-1.66-3.853H11.23L2 23.337Z" fill="#000"/><path d="m273.74 11.267 2.41-5.617h8.51l-2.46 5.71-8.46-.093Zm11.93 0 2.42-5.617h8.51l-2.47 5.71-8.46-.093Zm11.94 0 2.42-5.617h8.5l-2.46 5.71-8.46-.093Zm11.94 0 2.41-5.617h8.51L318 11.36l-8.45-.093Zm-52.9 318.216 2.41-5.617h8.51l-2.47 5.71-8.45-.093Zm11.93 0 2.42-5.617h8.5l-2.46 5.71-8.46-.093Z" fill="#7AE7FF"/><path d="M2 23.337v280.914l8.87 20.566H55.4l5.03 11.676h218.13l3.29-7.637h36.73l9.73-22.585v-290.2l-6.4-14.855h-157.4l-2.1 4.874H83.98l-1.66-3.853H11.23L2 23.337Z" stroke="#7AE7FF" stroke-width="2.325" stroke-miterlimit="10"/></svg>