<svg width="361" height="409" fill="none" xmlns="http://www.w3.org/2000/svg"><path d="M3.42 14.916 1 18.68v13.292l2.47-3.858-.05-13.198Zm0 18.634L1 37.328v13.275l2.47-3.842-.05-13.213Zm0 18.648L1 55.962v13.291l2.47-3.858-.05-13.197Zm0 18.632L1 74.61v13.276l2.47-3.843-.05-13.213Z" fill="#7AE7FF"/><path d="M347.76 2H16.89L8.03 15.854v69.548L3 93.258v140.768l3.29 5.139v152.638L16.02 407h334.87l6.4-9.996v-141.19l-2.1-3.28V130.039l1.66-2.592V16.416L347.76 2Z" fill="#000"/><path d="m357.65 181.205 2.42 3.764v13.291l-2.46-3.842.04-13.213Zm0 18.633 2.42 3.78v13.291l-2.46-3.858.04-13.213Zm0 18.648 2.42 3.78v13.276l-2.46-3.843.04-13.213Zm0 18.649 2.42 3.764v13.291l-2.46-3.858.04-13.197ZM7.56 358.099l2.42 3.764v13.291l-2.46-3.858.04-13.197Zm0 18.632 2.42 3.78v13.276l-2.46-3.842.04-13.214Z" fill="#7AE7FF"/><path d="M347.45 2H15.43L6.57 15.854v69.548l-5.03 7.856V219.97l3.29 5.138v166.695L14.56 407h336.02l6.4-9.996v-141.19l-2.1-3.28V130.039l1.66-2.592V16.416L347.45 2Z" stroke="#7AE7FF" stroke-width="2.325" stroke-miterlimit="10"/></svg>