<svg width="330" height="147" viewBox="0 0 330 147" fill="none" xmlns="http://www.w3.org/2000/svg">
<path d="M10 143.776L12.41 146.196H20.92L18.45 143.726L10 143.776Z" fill="#7AE7FF"/>
<path d="M21.9297 143.776L24.3497 146.196H32.8497L30.3897 143.726L21.9297 143.776Z" fill="#7AE7FF"/>
<path d="M33.8701 143.776L36.2801 146.196H44.7901L42.3201 143.726L33.8701 143.776Z" fill="#7AE7FF"/>
<path d="M45.7998 143.776L48.2198 146.196H56.7198L54.2598 143.726L45.7998 143.776Z" fill="#7AE7FF"/>
<!-- <path d="M2 10.7458V132.846L10.87 141.706H55.4L60.43 146.736H277.56L280.85 143.446H317.58L327.31 133.716V7.61582L320.91 1.21582H164.51L162.41 3.31582H83.98L82.32 1.65582H11.23L2 10.7458Z" fill="black"/> -->
<path d="M273.74 5.54598L276.15 3.12598H284.66L282.2 5.58598L273.74 5.54598Z" fill="#7AE7FF"/>
<path d="M285.67 5.54598L288.09 3.12598H296.6L294.13 5.58598L285.67 5.54598Z" fill="#7AE7FF"/>
<path d="M297.61 5.54598L300.03 3.12598H308.53L306.07 5.58598L297.61 5.54598Z" fill="#7AE7FF"/>
<path d="M309.55 5.54598L311.96 3.12598H320.47L318 5.58598L309.55 5.54598Z" fill="#7AE7FF"/>
<path d="M256.65 142.636L259.06 140.216H267.57L265.1 142.676L256.65 142.636Z" fill="#7AE7FF"/>
<path d="M268.58 142.636L271 140.216H279.5L277.04 142.676L268.58 142.636Z" fill="#7AE7FF"/>
<path d="M2 10.7458V131.766L10.87 140.626H55.4L60.43 145.656H278.56L281.85 142.366H318.58L328.31 132.636V7.61582L321.91 1.21582H164.51L162.41 3.31582H83.98L82.32 1.65582H11.23L2 10.7458Z" stroke="#7AE7FF" stroke-width="2.3247" stroke-miterlimit="10"/>
</svg>
