<svg width="330" height="226" fill="none"
    xmlns="http://www.w3.org/2000/svg">
    <path d="m10 221.428 2.41 3.738h8.51l-2.47-3.815-8.45.077Zm11.93 0 2.42 3.738h8.5l-2.46-3.815-8.46.077Zm11.94 0 2.41 3.738h8.51l-2.47-3.815-8.45.077Zm11.93 0 2.42 3.738h8.5l-2.46-3.815-8.46.077Z" fill="#7AE7FF"/>
    <path d="M2 15.937v188.607l8.87 13.686H55.4l5.03 7.77h217.13l3.29-5.082h36.73l9.73-15.03V11.102l-6.4-9.886h-156.4l-2.1 3.244H83.98l-1.66-2.565H11.23L2 15.937Z" fill="#000"/>
    <path d="m273.74 7.905 2.41-3.739h8.51l-2.46 3.8-8.46-.061Zm11.93 0 2.42-3.739h8.51l-2.47 3.8-8.46-.061Zm11.94 0 2.42-3.739h8.5l-2.46 3.8-8.46-.061Zm11.94 0 2.41-3.739h8.51l-2.47 3.8-8.45-.061Zm-52.9 211.762 2.41-3.739h8.51l-2.47 3.8-8.45-.061Zm11.93 0 2.42-3.739h8.5l-2.46 3.8-8.46-.061Z" fill="#7AE7FF"/>
    <path d="M2 15.937v186.939l8.87 13.686H55.4l5.03 7.77h218.13l3.29-5.082h36.73l9.73-15.03V11.102l-6.4-9.886h-157.4l-2.1 3.244H83.98l-1.66-2.565H11.23L2 15.937Z" stroke="#7AE7FF" stroke-width="2.325" stroke-miterlimit="10"/>
</svg>

