<svg width="361" height="471" fill="none" xmlns="http://www.w3.org/2000/svg"><path d="M3.42 22.401 1 28.346V49.34l2.47-6.093-.05-20.845Zm0 29.429L1 57.8v20.968L3.47 72.7l-.05-20.87Zm0 29.455L1 87.23v20.993l2.47-6.093-.05-20.845Zm0 29.429L1 116.684v20.968l2.47-6.068-.05-20.87Z" fill="#7AE7FF"/><path d="M347.45 2H16.58L7.72 23.881V133.73l-5.03 12.408v222.338l3.29 8.116v68.406L15.71 469h334.87l6.4-15.788v-50.324l-2.1-5.18V204.233l1.66-4.095V24.769L347.45 2Z" fill="#000"/><path d="m357.65 285.047 2.42 5.945v20.993l-2.46-6.069.04-20.869Zm0 29.429 2.42 5.97v20.993l-2.46-6.093.04-20.87Zm0 29.455 2.42 5.969v20.969l-2.46-6.069.04-20.869Zm0 29.454 2.42 5.945v20.993l-2.46-6.093.04-20.845ZM7.56 393.366l2.42 5.945v20.993l-2.46-6.093.04-20.845Zm0 29.429 2.42 5.97v20.968l-2.46-6.068.04-20.87Z" fill="#7AE7FF"/><path d="M347.45 2H15.43L6.57 23.881V133.73l-5.03 12.408v200.136l3.29 8.116v90.608L14.56 469h336.02l6.4-15.788v-50.324l-2.1-5.18V204.233l1.66-4.095V24.769L347.45 2Z" stroke="#7AE7FF" stroke-width="2.325" stroke-miterlimit="10"/></svg>