<svg width="21" height="17" viewBox="0 0 21 17" fill="none" xmlns="http://www.w3.org/2000/svg">
<path d="M18.6797 4.4375C18.7057 4.54167 18.7188 4.71094 18.7188 4.94531C18.7188 6.32552 18.4583 7.70573 17.9375 9.08594C17.4167 10.4401 16.6745 11.6901 15.7109 12.8359C14.7734 13.9557 13.5495 14.8672 12.0391 15.5703C10.5286 16.2734 8.86198 16.625 7.03906 16.625C4.7474 16.625 2.65104 16.013 0.75 14.7891C1.03646 14.8151 1.36198 14.8281 1.72656 14.8281C3.6276 14.8281 5.33333 14.2422 6.84375 13.0703C5.93229 13.0703 5.125 12.8099 4.42188 12.2891C3.74479 11.7422 3.27604 11.0651 3.01562 10.2578C3.27604 10.2839 3.52344 10.2969 3.75781 10.2969C4.1224 10.2969 4.48698 10.2578 4.85156 10.1797C4.22656 10.0495 3.66667 9.78906 3.17188 9.39844C2.67708 9.00781 2.28646 8.53906 2 7.99219C1.71354 7.41927 1.57031 6.80729 1.57031 6.15625V6.07812C2.14323 6.41667 2.75521 6.59896 3.40625 6.625C2.18229 5.79167 1.57031 4.64583 1.57031 3.1875C1.57031 2.45833 1.76562 1.76823 2.15625 1.11719C3.17188 2.39323 4.40885 3.40885 5.86719 4.16406C7.35156 4.91927 8.92708 5.33594 10.5938 5.41406C10.5417 5.10156 10.5156 4.78906 10.5156 4.47656C10.5156 3.35677 10.9062 2.39323 11.6875 1.58594C12.4948 0.778646 13.4583 0.375 14.5781 0.375C15.776 0.375 16.7786 0.804688 17.5859 1.66406C18.5234 1.48177 19.3958 1.15625 20.2031 0.6875C19.8906 1.65104 19.2917 2.40625 18.4062 2.95312C19.1875 2.84896 19.9688 2.6276 20.75 2.28906C20.1771 3.1224 19.487 3.83854 18.6797 4.4375Z" fill="#000"/>
</svg>
