<svg width="194" height="190" fill="none" xmlns="http://www.w3.org/2000/svg"><path d="M95.565 181.546c14.876-.086 29.484-3.998 42.332-11.346l3.768 6.499c-13.996 7.964-29.915 12.221-46.1 12.332v-7.485Zm70.869-31.049c9.47-11.443 15.853-25.229 18.474-39.938l7.377 1.288a93.733 93.733 0 0 1-20.09 43.457l-5.761-4.807ZM8.458 94.605H4.687l-3.743-.046c.084-16.206 4.318-32.096 12.285-46.037l6.503 3.744C12.415 65.112 8.526 79.726 8.458 94.605ZM33.659 28.44l-5.116-5.473C40.378 12.042 54.943 4.32 70.697.607l1.69 7.292C57.894 11.35 44.523 18.419 33.66 28.44Z" fill="#7AE7FF" stroke="#7AE7FF"/><path d="M95.013 179.564c46.722 0 84.598-37.86 84.598-84.563s-37.876-84.563-84.598-84.563-84.598 37.86-84.598 84.563 37.876 84.563 84.598 84.563Z" stroke="#7AE7FF" stroke-width="2.383" stroke-miterlimit="10"/><mask id="Circle_7_1___a" fill="#fff"><path d="M95.013 190.001h-.99l.079-9.448h.911v9.448Zm-6.952-.261-.99-.078.782-9.396.91.078-.702 9.396Zm-6.9-.754c-.339-.052-.651-.105-.99-.157l1.458-9.317c.287.052.573.078.886.13l-1.354 9.344Zm-6.848-1.25a12.76 12.76 0 0 0-.964-.208l2.135-9.188.886.209-2.057 9.187Zm-6.718-1.77c-.313-.104-.625-.182-.938-.286l2.813-9.005.859.26-2.734 9.031Zm-6.614-2.238c-.312-.13-.625-.234-.937-.364l3.463-8.772.833.339-3.359 8.797Zm-6.405-2.733c-.313-.13-.599-.286-.912-.416l4.114-8.485.808.39-4.01 8.511Zm-6.171-3.201c-.287-.156-.573-.339-.86-.495l4.713-8.172.782.442-4.635 8.225Zm-5.937-3.618c-.286-.182-.547-.364-.833-.547l5.312-7.808.755.495-5.234 7.86Zm-5.65-4.06-.781-.625 5.884-7.392.703.547-5.806 7.47Zm-5.338-4.477c-.26-.234-.495-.442-.729-.677l6.38-6.949c.208.208.442.39.65.599l-6.3 7.027Zm-5-4.815c-.234-.234-.468-.495-.702-.729l6.9-6.455c.208.209.416.417.599.651l-6.796 6.533Zm-4.634-5.18-.625-.78 7.343-5.961c.182.235.364.469.573.677l-7.291 6.064Zm-4.244-5.517c-.183-.261-.39-.547-.573-.807l7.76-5.388c.155.234.338.495.52.729l-7.707 5.466Zm-3.828-5.778-.495-.859 8.124-4.841.469.78-8.098 4.92Zm-3.385-6.065-.442-.885 8.436-4.242.416.807-8.41 4.32Zm-2.942-6.298-.39-.911 8.722-3.592.365.833-8.697 3.67Zm-2.474-6.481-.312-.937 8.983-2.941c.104.286.182.572.286.859l-8.957 3.019Zm-1.979-6.663c-.078-.313-.156-.651-.234-.963l9.165-2.265c.079.287.157.573.209.859l-9.14 2.369Zm-1.484-6.793a13.076 13.076 0 0 0-.182-.989l9.322-1.588c.052.286.104.598.156.885l-9.296 1.692Zm-.99-6.872-.103-.989 9.4-.911.077.885-9.373 1.015Zm-.494-6.949c0-.338-.026-.65-.026-.989l9.452-.208.026.885-9.452.312Z"/></mask><path d="M95.013 190.001h-.99l.079-9.448h.911v9.448Zm-6.952-.261-.99-.078.782-9.396.91.078-.702 9.396Zm-6.9-.754c-.339-.052-.651-.105-.99-.157l1.458-9.317c.287.052.573.078.886.13l-1.354 9.344Zm-6.848-1.25a12.76 12.76 0 0 0-.964-.208l2.135-9.188.886.209-2.057 9.187Zm-6.718-1.77c-.313-.104-.625-.182-.938-.286l2.813-9.005.859.26-2.734 9.031Zm-6.614-2.238c-.312-.13-.625-.234-.937-.364l3.463-8.772.833.339-3.359 8.797Zm-6.405-2.733c-.313-.13-.599-.286-.912-.416l4.114-8.485.808.39-4.01 8.511Zm-6.171-3.201c-.287-.156-.573-.339-.86-.495l4.713-8.172.782.442-4.635 8.225Zm-5.937-3.618c-.286-.182-.547-.364-.833-.547l5.312-7.808.755.495-5.234 7.86Zm-5.65-4.06-.781-.625 5.884-7.392.703.547-5.806 7.47Zm-5.338-4.477c-.26-.234-.495-.442-.729-.677l6.38-6.949c.208.208.442.39.65.599l-6.3 7.027Zm-5-4.815c-.234-.234-.468-.495-.702-.729l6.9-6.455c.208.209.416.417.599.651l-6.796 6.533Zm-4.634-5.18-.625-.78 7.343-5.961c.182.235.364.469.573.677l-7.291 6.064Zm-4.244-5.517c-.183-.261-.39-.547-.573-.807l7.76-5.388c.155.234.338.495.52.729l-7.707 5.466Zm-3.828-5.778-.495-.859 8.124-4.841.469.78-8.098 4.92Zm-3.385-6.065-.442-.885 8.436-4.242.416.807-8.41 4.32Zm-2.942-6.298-.39-.911 8.722-3.592.365.833-8.697 3.67Zm-2.474-6.481-.312-.937 8.983-2.941c.104.286.182.572.286.859l-8.957 3.019Zm-1.979-6.663c-.078-.313-.156-.651-.234-.963l9.165-2.265c.079.287.157.573.209.859l-9.14 2.369Zm-1.484-6.793a13.076 13.076 0 0 0-.182-.989l9.322-1.588c.052.286.104.598.156.885l-9.296 1.692Zm-.99-6.872-.103-.989 9.4-.911.077.885-9.373 1.015Zm-.494-6.949c0-.338-.026-.65-.026-.989l9.452-.208.026.885-9.452.312Z" fill="#7AE7FF"/><path d="M95.013 190.001v1h1v-1h-1Zm-.99 0-1-.009-.008 1.009h1.009v-1Zm.079-9.448v-1h-.992l-.008.991 1 .009Zm.911 0h1v-1h-1v1Zm-6.952 9.187-.079.997 1.001.079.075-1.001-.997-.075Zm-.99-.078-.996-.083-.083 1.001 1 .079.08-.997Zm.782-9.396.085-.996-.999-.086-.083 1 .997.082Zm.91.078.998.075.074-.986-.986-.085-.085.996Zm-7.602 8.642-.152.988.997.153.144-.998-.99-.143Zm-.99-.157-.988-.154-.155.99.991.153.152-.989Zm1.458-9.317.18-.984-1.01-.184-.158 1.013.988.155Zm.886.13.99.143.14-.969-.966-.161-.164.987Zm-8.202 8.094-.243.97.995.249.224-1-.976-.219Zm-.964-.208-.974-.226-.24 1.037 1.05.175.164-.986Zm2.135-9.188.23-.973-.977-.23-.227.977.974.226Zm.886.209.976.218.216-.965-.963-.227-.23.974Zm-8.775 7.417-.316.949.975.325.298-.984-.957-.29Zm-.938-.286-.954-.298-.293.937.931.31.317-.949Zm2.813-9.005.29-.957-.95-.288-.295.947.955.298Zm.859.26.957.29.29-.957-.957-.29-.29.957Zm-9.348 6.793-.384.923.95.396.369-.962-.935-.357Zm-.937-.364-.93-.368-.36.913.905.378.385-.923Zm3.463-8.772.376-.926-.935-.38-.371.939.93.367Zm.833.339.934.356.35-.914-.908-.369-.376.927Zm-9.764 6.064-.385.923.882.368.407-.865-.904-.426Zm-.912-.416-.9-.437-.461.953.977.407.384-.923Zm4.114-8.485.436-.9-.9-.435-.435.899.9.436Zm.808.39.904.426.422-.895-.89-.431-.436.9Zm-10.181 5.31-.479.878.866.472.484-.859-.871-.491Zm-.86-.495-.866-.499-.511.887.899.49.479-.878Zm4.713-8.172.493-.87-.863-.49-.496.86.866.5Zm.782.442.87.491.49-.869-.867-.492-.493.87Zm-10.572 4.607-.537.844.827.525.542-.815-.832-.554Zm-.833-.547-.827-.562-.58.853.87.553.537-.844Zm5.312-7.808.548-.836-.822-.539-.553.813.827.562Zm.755.495.832.554.559-.839-.843-.552-.548.837Zm-10.884 3.8-.625.781.792.633.622-.801-.79-.613Zm-.781-.625-.783-.623-.621.781.78.623.624-.781Zm5.884-7.392.614-.789-.78-.607-.616.773.782.623Zm.703.547.79.614.614-.79-.79-.614-.614.79Zm-11.144 2.993-.669.743.745.67.669-.745-.745-.668Zm-.729-.677-.737-.676-.648.706.678.678.707-.708Zm6.38-6.949.706-.707-.738-.738-.705.769.736.676Zm.65.599.745.667.632-.705-.67-.67-.707.708Zm-11.3 2.212-.707.707.693.693.707-.679-.693-.721Zm-.703-.729-.683-.73-.756.706.732.731.707-.707Zm6.9-6.455.707-.707-.684-.684-.706.661.683.73Zm.599.651.693.721.649-.624-.553-.711-.79.614Zm-11.431 1.353-.78.625.636.796.783-.652-.639-.769Zm-.625-.78-.63-.777-.771.626.62.776.781-.625Zm7.343-5.961.789-.614-.627-.805-.792.643.63.776Zm.573.677.64.769.842-.701-.775-.775-.707.707Zm-11.535.547-.82.573.578.824.82-.582-.578-.815Zm-.573-.807-.57-.822-.825.573.576.822.819-.573Zm7.76-5.388.831-.555-.565-.847-.837.581.57.821Zm.52.729.578.816.853-.605-.642-.825-.789.614Zm-11.535-.312-.866.499.51.887.875-.532-.519-.854Zm-.495-.859-.511-.859-.847.504.492.854.866-.499Zm8.124-4.841.858-.515-.513-.855-.857.511.512.859Zm.469.78.52.855.85-.516-.513-.853-.857.514Zm-11.483-1.145-.894.448.452.904.9-.462-.458-.89Zm-.442-.885-.45-.893-.891.448.446.893.895-.448Zm8.436-4.242.888-.459-.454-.879-.883.444.449.894Zm.416.807.457.889.892-.458-.46-.89-.889.459Zm-11.352-1.978-.92.394.393.913.916-.386-.39-.921Zm-.39-.911-.381-.925-.939.386.4.933.92-.394Zm8.722-3.592.916-.401-.392-.896-.905.372.381.925Zm.365.833.388.921.934-.394-.406-.928-.916.401Zm-11.17-2.811-.95.316.318.952.95-.321-.319-.947Zm-.313-.937-.311-.951-.956.313.318.954.949-.316Zm8.983-2.941.94-.342-.331-.91-.92.301.311.951Zm.286.859.32.947.97-.327-.35-.962-.94.342Zm-10.936-3.644-.97.242.245.979.976-.253-.25-.968Zm-.234-.963-.24-.971-.973.24.243.973.97-.242Zm9.165-2.265.965-.263-.257-.942-.947.235.24.97Zm.209.859.25.968.9-.233-.166-.914-.984.179ZM1.51 112.049l-.988.152.156 1.015 1.011-.184-.179-.983Zm-.182-.989-.168-.986-1.045.178.239 1.032.974-.224Zm9.322-1.588.983-.179-.176-.973-.975.166.168.986Zm.156.885.179.984.984-.179-.18-.984-.983.179ZM.52 105.177l-.995.105.105.998.997-.108-.107-.995Zm-.104-.989-.097-.995-1.003.097.105 1.003.995-.105Zm9.4-.911.995-.088-.088-1.004-1.004.097.096.995Zm.077.885.108.994.975-.105-.086-.977-.997.088ZM.026 98.228h-1v1.034l1.033-.034-.033-1ZM0 97.239l-.022-1-.978.022v.978h1Zm9.452-.208 1-.03-.03-.992-.992.022.022 1Zm.026.885.033 1 .996-.034-.03-.996-1 .03ZM95.013 189h-.99v2h.99v-2Zm.01 1.008.079-9.448-2-.017-.078 9.448 2 .017Zm-.921-8.456h.911v-2h-.911v2Zm-.089-1V190h2v-9.448h-2Zm-5.874 8.19-.989-.078-.157 1.994.99.078.156-1.994Zm-.071 1.002.781-9.396-1.993-.165-.781 9.395 1.993.166Zm-.3-8.482.91.078.171-1.993-.911-.078-.17 1.993Zm-.001-.993-.703 9.396 1.994.149.703-9.396-1.994-.149Zm-6.454 7.727c-.166-.025-.326-.051-.489-.077a138.67 138.67 0 0 0-.5-.079l-.305 1.977c.166.025.326.051.49.077l.5.079.304-1.977Zm-.154.987 1.458-9.318-1.976-.309-1.458 9.318 1.976.309Zm.292-8.489c.169.031.334.054.48.073.15.02.283.037.42.06l.328-1.973c-.176-.029-.343-.051-.485-.07a7.868 7.868 0 0 1-.386-.057l-.357 1.967Zm.074-.997-1.354 9.344 1.98.287 1.353-9.344-1.979-.287Zm-6.97 7.268a13.57 13.57 0 0 0-1.041-.224l-.329 1.972c.273.046.582.117.885.192l.485-1.94Zm-.232.988 2.136-9.187-1.949-.453-2.135 9.188 1.948.452Zm.933-8.44.885.208.458-1.947-.886-.208-.457 1.947Zm.138-.984-2.057 9.188 1.952.437 2.057-9.188-1.952-.437Zm-7.483 6.688c-.177-.059-.352-.11-.505-.155a11.214 11.214 0 0 1-.432-.132l-.633 1.898c.178.059.352.11.505.154.16.047.297.087.433.132l.632-1.897Zm-.299.96 2.812-9.005-1.909-.596-2.812 9.005 1.91.596Zm1.568-8.346.859.26.58-1.914-.86-.26-.58 1.914Zm.192-.987-2.734 9.032 1.914.579 2.734-9.031-1.914-.58Zm-8.006 6.16c-.176-.073-.349-.138-.502-.196a12.035 12.035 0 0 1-.436-.168l-.769 1.846c.176.073.349.138.503.195.158.06.298.112.435.169l.769-1.846Zm-.392.926 3.463-8.771-1.86-.735-3.463 8.771 1.86.735Zm2.157-8.212.833.338.752-1.853-.833-.338-.752 1.853Zm.275-.945-3.359 8.797 1.869.714 3.358-8.798-1.868-.713Zm-8.446 5.498a9.539 9.539 0 0 1-.409-.187c-.146-.07-.318-.153-.502-.229l-.769 1.846c.129.053.256.114.409.187.146.07.319.153.502.229l.77-1.846Zm-.396.943 4.114-8.485-1.8-.872-4.113 8.484 1.8.873Zm2.78-8.021.806.39.871-1.8-.807-.39-.87 1.8Zm.337-.936-4.01 8.511 1.81.852 4.01-8.511-1.81-.852Zm-8.797 4.858a15.518 15.518 0 0 1-.4-.23c-.14-.083-.299-.177-.46-.265l-.957 1.756c.125.069.254.144.4.231.14.083.298.176.46.264l.956-1.756Zm-.472.883 4.713-8.173-1.733-.999-4.713 8.173 1.733.999Zm3.354-7.802.78.442.986-1.74-.78-.442-.986 1.74Zm.402-.919-4.634 8.225 1.742.982 4.635-8.225-1.743-.982Zm-9.163 4.254c-.133-.084-.261-.17-.399-.261-.135-.091-.28-.188-.434-.285l-1.074 1.687c.133.085.261.17.399.262.135.09.28.187.434.285l1.074-1.688Zm-.543.86 5.311-7.808-1.653-1.125-5.312 7.808 1.654 1.125Zm3.937-7.534.755.494 1.096-1.673-.755-.494-1.096 1.673Zm.47-.897-5.233 7.861 1.664 1.108 5.234-7.86-1.665-1.109Zm-9.427 3.574-.39-.313-.39-.312-1.25 1.562.39.312.391.313 1.25-1.562Zm-.623.779 5.885-7.392-1.565-1.246-5.885 7.392 1.565 1.246Zm4.489-7.225a1076.418 1076.418 0 0 0 .703.546l1.227-1.579-.351-.273-.352-.273-1.227 1.579Zm.527-.857-5.807 7.47 1.58 1.227 5.806-7.469-1.58-1.228Zm-9.686 2.864c-.268-.241-.48-.43-.691-.641l-1.414 1.415c.257.257.514.485.767.712l1.338-1.486Zm-.661.743 6.379-6.95-1.473-1.352-6.38 6.949 1.474 1.353Zm4.935-6.919c.13.13.265.248.371.342.115.101.202.178.28.257l1.414-1.415c-.13-.13-.264-.248-.37-.342a6.395 6.395 0 0 1-.28-.256l-1.415 1.414Zm.614-.776-6.302 7.027 1.49 1.336 6.3-7.028-1.488-1.335Zm-9.85 2.173c-.105-.106-.213-.22-.332-.345a18.228 18.228 0 0 0-.37-.384l-1.414 1.414c.106.106.213.22.332.345.116.122.242.256.37.384l1.415-1.414Zm-.726.708 6.9-6.454-1.366-1.461-6.9 6.455 1.366 1.46Zm5.51-6.477c.215.215.379.38.516.557l1.579-1.228c-.227-.292-.48-.543-.681-.744l-1.414 1.415Zm.613-.778-6.796 6.533 1.386 1.442 6.796-6.533-1.386-1.442Zm-9.957 1.45-.313-.391-.312-.39-1.562 1.25.313.39.312.39 1.562-1.249Zm-.776.62 7.343-5.96-1.26-1.553-7.343 5.96 1.26 1.553Zm5.924-6.123c.175.226.395.511.655.77l1.414-1.414a6.284 6.284 0 0 1-.491-.584l-1.578 1.228Zm.722-.706-7.29 6.065 1.278 1.537 7.291-6.064-1.279-1.538Zm-10.076.742-.292-.411c-.098-.138-.193-.27-.281-.396l-1.638 1.147c.094.135.195.276.292.412.098.137.193.27.28.395l1.639-1.147Zm-.822.588 7.76-5.387-1.141-1.643-7.76 5.387 1.141 1.643Zm6.357-5.654c.165.246.361.528.564.788l1.578-1.228a11.92 11.92 0 0 1-.478-.67l-1.664 1.11Zm.775-.642-7.708 5.466 1.157 1.631 7.707-5.465-1.156-1.632Zm-10.09.004-.495-.858-1.733.998.495.859 1.733-.999Zm-.85.5 8.124-4.841-1.024-1.718-8.123 4.841 1.023 1.718Zm6.755-5.186.469.781 1.714-1.029-.468-.781-1.715 1.029Zm.807-.588-8.098 4.919 1.038 1.709 8.098-4.919-1.038-1.709Zm-10.07-.738-.442-.885-1.789.895.443.885 1.789-.895Zm-.887.456 8.436-4.243-.898-1.787-8.437 4.243.899 1.787Zm7.098-4.677.417.806 1.777-.917-.417-.807-1.777.918Zm.849-.542-8.41 4.321.913 1.779 8.41-4.321-.913-1.779Zm-9.977-1.482-.39-.911-1.839.788.39.911 1.839-.788Zm-.929.407 8.723-3.592-.762-1.849-8.722 3.592.761 1.849Zm7.426-4.115.364.833 1.833-.802-.365-.833-1.832.802Zm.892-.49-8.697 3.67.778 1.843 8.696-3.67-.777-1.843Zm-9.833-2.206-.156-.468-.157-.469-1.897.633.156.469.157.468 1.897-.633Zm-.95.33 8.983-2.941-.622-1.901-8.983 2.941.622 1.901Zm7.732-3.549c.044.12.084.244.13.39.045.141.097.303.157.468l1.88-.683a10.421 10.421 0 0 1-.13-.391c-.046-.14-.097-.303-.157-.468l-1.88.684Zm.907-.431-8.957 3.019.639 1.895 8.957-3.019-.639-1.895Zm-9.646-2.939a42.077 42.077 0 0 1-.115-.472 56.513 56.513 0 0 0-.12-.491l-1.94.485c.038.151.076.309.115.473.039.161.079.329.12.49l1.94-.485ZM3 118.85l9.165-2.265-.48-1.941-9.165 2.264.48 1.942Zm7.96-2.972c.08.293.147.538.19.774l1.968-.358c-.062-.336-.152-.664-.228-.943l-1.93.527Zm.923-.373-9.14 2.369.502 1.936 9.14-2.369-.502-1.936Zm-9.384-3.609a14.39 14.39 0 0 0-.197-1.061l-1.948.449c.07.302.117.585.168.917l1.977-.305Zm-1.003.149 9.322-1.587-.336-1.972-9.322 1.588.336 1.971Zm8.17-2.394.076.435.08.45 1.968-.358c-.026-.139-.05-.285-.077-.435l-.08-.45-1.967.358Zm.96-.278-9.295 1.692.358 1.967 9.296-1.691-.358-1.968Zm-9.11-4.3-.105-.989-1.989.209.104.989 1.99-.209Zm-1.003.111 9.4-.911-.193-1.991-9.4.911.193 1.991Zm8.307-1.819.078.885 1.993-.176-.079-.885-1.992.176Zm.967-.197-9.374 1.015.215 1.989 9.374-1.016-.215-1.988Zm-8.761-4.94c0-.192-.007-.375-.014-.534A11.293 11.293 0 0 1 1 97.239h-2c0 .192.007.375.014.534.006.166.012.309.012.455h2Zm-1.004.01 9.452-.207-.044-2-9.452.208.044 2Zm8.43-1.178.026.885 2-.059-.027-.885-1.999.06Zm.993-.144-9.452.313.066 1.999 9.452-.313-.066-1.999Z" fill="#7AE7FF" mask="url(#Circle_7_1___a)"/><g filter="url(#Circle_7_1___b)"><path d="m180.574 92.97-.026-.884 9.426-.312c0 .338.026.65.026.989l-9.426.208Zm-.364-6.246-.104-.885 9.399-.989.105.99-9.4.884Zm-.833-6.22c-.052-.287-.105-.599-.157-.885l9.296-1.692c.052.338.104.65.182.99l-9.321 1.587Zm-1.276-6.117c-.078-.286-.156-.572-.209-.859l9.14-2.368c.078.312.156.65.234.963l-9.165 2.264Zm-1.719-6.012c-.104-.286-.182-.573-.286-.859l8.931-3.02.312.938-8.957 2.941Zm-2.161-5.856-.338-.833 8.696-3.67.391.911-8.749 3.592Zm-2.578-5.7-.416-.807 8.41-4.295.443.885-8.437 4.217Zm-3.02-5.492-.469-.78 8.072-4.92.495.833-8.098 4.867Zm-3.385-5.258c-.182-.234-.339-.494-.521-.728l7.681-5.492c.183.26.391.547.573.807l-7.733 5.413Zm-3.776-4.997c-.182-.234-.364-.468-.572-.677l7.264-6.038.625.781-7.317 5.934Zm-4.114-4.71c-.208-.209-.416-.417-.598-.651l6.795-6.533c.235.234.469.494.703.729l-6.9 6.454Zm-4.452-4.4c-.208-.208-.443-.39-.651-.598l6.301-7.027c.261.234.495.442.729.676l-6.379 6.95Zm-4.765-4.06-.703-.546 5.78-7.47.781.625-5.858 7.391Zm-5.051-3.696-.756-.52 5.234-7.86c.286.182.547.364.833.546l-5.311 7.834Zm-5.312-3.331-.781-.442 4.634-8.225c.287.156.573.338.86.494l-4.713 8.173Zm-5.546-2.941-.808-.39 4.036-8.538c.313.13.599.287.912.417l-4.14 8.51Zm-5.729-2.525-.833-.338 3.385-8.823c.312.13.625.234.937.364l-3.489 8.797Zm-5.91-2.082-.86-.26 2.734-9.032c.313.104.625.182.964.287l-2.838 9.005Zm-6.041-1.64-.886-.208 2.057-9.214c.313.078.651.157.964.209l-2.135 9.213Zm-6.171-1.197c-.287-.052-.573-.078-.886-.13l1.354-9.344c.339.052.651.104.99.156l-1.458 9.318Zm-6.197-.755-.912-.078.703-9.422.99.078-.781 9.422Zm-6.25-.286h-.91V0h.989l-.079 9.448Z" fill="#7AE7FF"/><path d="m163.228 30.176.304-.292.002.002.002.002-.308.288ZM129.33 6.9l.002-.004-.002.004Z" stroke="#7AE7FF"/></g><defs><filter id="Circle_7_1___b" x="91.013" y=".001" width="102.987" height="100.97" filterUnits="userSpaceOnUse" color-interpolation-filters="sRGB"><feFlood flood-opacity="0" result="BackgroundImageFix"/><feColorMatrix in="SourceAlpha" values="0 0 0 0 0 0 0 0 0 0 0 0 0 0 0 0 0 0 127 0" result="hardAlpha"/><feOffset dy="4"/><feGaussianBlur stdDeviation="2"/><feComposite in2="hardAlpha" operator="out"/><feColorMatrix values="0 0 0 0 0 0 0 0 0 0 0 0 0 0 0 0 0 0 0.25 0"/><feBlend in2="BackgroundImageFix" result="effect1_dropShadow_28_350"/><feBlend in="SourceGraphic" in2="effect1_dropShadow_28_350" result="shape"/></filter></defs></svg>